<svg xmlns="http://www.w3.org/2000/svg" viewBox="0 0 274.07 283.46"><title>Asset 2</title><g id="Layer_2" data-name="Layer 2"><g id="Layer_3" data-name="Layer 3"><path d="M175.79,0H39.57a.65.65,0,0,0-.65.65V58.82a.65.65,0,0,0,.52.64c7.62,1.59,14.42,5.05,19.13,9.76a.64.64,0,0,0,.92,0c4.72-4.71,11.51-8.17,19.13-9.76a.65.65,0,0,0,.53-.64V40.23h96.64c22.52,0,38.26,15.73,38.26,38.26s-15.74,38.26-38.26,38.26c-17.65,0-33.13-11.19-48.09-22-3.25-2.36-6.61-4.79-9.92-7C111,83,105,79.56,98.11,77.86,84.35,74.44,68.4,78.33,59,87.3c-9.37-9-25.32-12.86-39.07-9.44C13.07,79.56,7.11,83,.29,87.68a.65.65,0,0,0-.29.54v48.65a.65.65,0,0,0,.37.59.69.69,0,0,0,.69-.08c2.42-1.9,4.78-4,7.06-6,7-6.11,13.59-11.88,21.84-13.37,9.35-1.69,21.39,2.33,28.61,9.55a.64.64,0,0,0,.92,0c7.23-7.22,19.25-11.23,28.61-9.55,8.25,1.49,14.86,7.26,21.84,13.37,2.29,2,4.65,4.06,7.06,6C133.11,150,154,157,175.79,157c46.21,0,78.49-32.28,78.49-78.49S222,0,175.79,0Z" style="fill:#e86937"/><path d="M252.79,138.18a.55.55,0,0,0-.51-.24.65.65,0,0,0-.5.26,96.22,96.22,0,0,1-29.48,25,.68.68,0,0,0-.33.46.67.67,0,0,0,.15.54,48,48,0,0,1-36.6,79H79.15V136.88a.63.63,0,0,0-.24-.49.59.59,0,0,0-.52-.15A37.64,37.64,0,0,0,59,145.68a37.61,37.61,0,0,0-19.35-9.44.66.66,0,0,0-.76.64V282.81a.65.65,0,0,0,.65.65h146c35.29,0,65.22-19.12,80-51.15S275.62,165.09,252.79,138.18Z" style="fill:#e86937"/></g></g></svg>
